<svg id="visual" viewBox="0 0 900 600" width="900" height="600" xmlns="http://www.w3.org/2000/svg" xmlns:xlink="http://www.w3.org/1999/xlink" version="1.1"><path d="M0 310L21.5 326.5C43 343 86 376 128.8 377.2C171.7 378.3 214.3 347.7 257.2 328.3C300 309 343 301 385.8 308.8C428.7 316.7 471.3 340.3 514.2 364.2C557 388 600 412 642.8 402.5C685.7 393 728.3 350 771.2 332.8C814 315.7 857 324.3 878.5 328.7L900 333L900 601L878.5 601C857 601 814 601 771.2 601C728.3 601 685.7 601 642.8 601C600 601 557 601 514.2 601C471.3 601 428.7 601 385.8 601C343 601 300 601 257.2 601C214.3 601 171.7 601 128.8 601C86 601 43 601 21.5 601L0 601Z" fill="#33312d" stroke-linecap="round" stroke-linejoin="miter"></path></svg>